<mxfile host="Electron" modified="2023-09-14T01:31:07.740Z" agent="Mozilla/5.0 (Macintosh; Intel Mac OS X 10_15_7) AppleWebKit/537.36 (KHTML, like Gecko) draw.io/21.6.8 Chrome/114.0.5735.289 Electron/25.5.0 Safari/537.36" etag="o4AQNkVVi2r_WdCAYIVg" version="21.6.8" type="device">
  <diagram id="u-Bgehv5GdRI6xBluCmY" name="Page-1">
    <mxGraphModel dx="1114" dy="806" grid="1" gridSize="10" guides="1" tooltips="1" connect="1" arrows="1" fold="1" page="1" pageScale="1" pageWidth="1600" pageHeight="900" math="0" shadow="0">
      <root>
        <mxCell id="0" />
        <mxCell id="1" parent="0" />
        <mxCell id="NKZoFBCDpuy2na6IxqbC-2" value="" style="rounded=0;whiteSpace=wrap;html=1;fillColor=none;" parent="1" vertex="1">
          <mxGeometry x="800" y="40" width="400" height="800" as="geometry" />
        </mxCell>
        <mxCell id="2yIdOF0hmLs-8Ow3VVvw-1" value="" style="whiteSpace=wrap;html=1;fillColor=#dae8fc;strokeColor=#6c8ebf;" parent="1" vertex="1">
          <mxGeometry x="40" y="320" width="1520" height="280" as="geometry" />
        </mxCell>
        <mxCell id="NKZoFBCDpuy2na6IxqbC-1" value="" style="rounded=0;whiteSpace=wrap;html=1;fillColor=none;" parent="1" vertex="1">
          <mxGeometry x="40" y="40" width="760" height="800" as="geometry" />
        </mxCell>
        <mxCell id="NKZoFBCDpuy2na6IxqbC-3" value="" style="rounded=0;whiteSpace=wrap;html=1;fillColor=none;" parent="1" vertex="1">
          <mxGeometry x="1200" y="40" width="360" height="800" as="geometry" />
        </mxCell>
        <mxCell id="2yIdOF0hmLs-8Ow3VVvw-18" value="" style="rounded=1;whiteSpace=wrap;html=1;fillColor=#e1d5e7;strokeColor=#9673a6;" parent="1" vertex="1">
          <mxGeometry x="821" y="130" width="200" height="460" as="geometry" />
        </mxCell>
        <mxCell id="NKZoFBCDpuy2na6IxqbC-20" value="" style="group;fillColor=none;" parent="1" vertex="1" connectable="0">
          <mxGeometry x="720" y="40" width="480" height="50" as="geometry" />
        </mxCell>
        <mxCell id="NKZoFBCDpuy2na6IxqbC-18" value="" style="rounded=0;whiteSpace=wrap;html=1;fillColor=#d5e8d4;strokeColor=#82b366;" parent="NKZoFBCDpuy2na6IxqbC-20" vertex="1">
          <mxGeometry x="34.285714285714285" width="445.71428571428567" height="50" as="geometry" />
        </mxCell>
        <mxCell id="NKZoFBCDpuy2na6IxqbC-19" value="&lt;font style=&quot;font-size: 24px;&quot;&gt;Service Provider Edge&lt;/font&gt;" style="text;strokeColor=none;align=center;fillColor=#d5e8d4;html=1;verticalAlign=middle;whiteSpace=wrap;rounded=0;" parent="NKZoFBCDpuy2na6IxqbC-20" vertex="1">
          <mxGeometry x="147.42857142857142" y="10" width="281.63142857142856" height="30" as="geometry" />
        </mxCell>
        <mxCell id="NKZoFBCDpuy2na6IxqbC-17" value="" style="group" parent="1" vertex="1" connectable="0">
          <mxGeometry x="40" y="40" width="760" height="50" as="geometry" />
        </mxCell>
        <mxCell id="NKZoFBCDpuy2na6IxqbC-15" value="" style="rounded=0;whiteSpace=wrap;html=1;fillColor=#5762b3;" parent="NKZoFBCDpuy2na6IxqbC-17" vertex="1">
          <mxGeometry width="760" height="50" as="geometry" />
        </mxCell>
        <mxCell id="NKZoFBCDpuy2na6IxqbC-16" value="&lt;font color=&quot;#ffffff&quot; style=&quot;font-size: 24px;&quot;&gt;User Edge, Field Deployed Compute&lt;/font&gt;" style="text;strokeColor=none;align=center;fillColor=none;html=1;verticalAlign=middle;whiteSpace=wrap;rounded=0;" parent="NKZoFBCDpuy2na6IxqbC-17" vertex="1">
          <mxGeometry x="27.14285714285714" y="10" width="665" height="30" as="geometry" />
        </mxCell>
        <mxCell id="NKZoFBCDpuy2na6IxqbC-23" value="" style="group" parent="1" vertex="1" connectable="0">
          <mxGeometry x="1200" y="40" width="360" height="50" as="geometry" />
        </mxCell>
        <mxCell id="NKZoFBCDpuy2na6IxqbC-21" value="" style="rounded=0;whiteSpace=wrap;html=1;fillColor=#E7DBF0;" parent="NKZoFBCDpuy2na6IxqbC-23" vertex="1">
          <mxGeometry width="360" height="50" as="geometry" />
        </mxCell>
        <mxCell id="NKZoFBCDpuy2na6IxqbC-22" value="&lt;font style=&quot;font-size: 24px;&quot;&gt;Global and Cloud Compute&lt;/font&gt;" style="text;strokeColor=none;align=center;fillColor=none;html=1;verticalAlign=middle;whiteSpace=wrap;rounded=0;" parent="NKZoFBCDpuy2na6IxqbC-23" vertex="1">
          <mxGeometry x="33" y="10" width="295" height="30" as="geometry" />
        </mxCell>
        <mxCell id="iU7ZojFt_CZGEspTZ9bw-25" value="" style="rounded=0;whiteSpace=wrap;html=1;fillColor=#f5f5f5;strokeColor=#666666;fontColor=#333333;" parent="1" vertex="1">
          <mxGeometry x="120" y="90" width="280" height="750" as="geometry" />
        </mxCell>
        <mxCell id="2yIdOF0hmLs-8Ow3VVvw-2" value="" style="whiteSpace=wrap;html=1;fillColor=#CAD8EC;strokeColor=#6c8ebf;" parent="1" vertex="1">
          <mxGeometry x="120" y="320" width="280" height="280" as="geometry" />
        </mxCell>
        <mxCell id="rkRexL7u3ubiK1zSjF01-2" value="" style="endArrow=none;html=1;rounded=0;exitX=0.001;exitY=0.697;exitDx=0;exitDy=0;exitPerimeter=0;entryX=1.002;entryY=0.702;entryDx=0;entryDy=0;entryPerimeter=0;" parent="1" edge="1">
          <mxGeometry width="50" height="50" relative="1" as="geometry">
            <mxPoint x="40.559999999999945" y="598.5999999999999" as="sourcePoint" />
            <mxPoint x="1560.8000000000002" y="602.5999999999999" as="targetPoint" />
          </mxGeometry>
        </mxCell>
        <mxCell id="rkRexL7u3ubiK1zSjF01-4" value="&lt;font style=&quot;font-size: 24px;&quot;&gt;Infrastructure&lt;/font&gt;" style="text;strokeColor=none;align=center;fillColor=none;html=1;verticalAlign=middle;whiteSpace=wrap;rounded=0;rotation=-90;" parent="1" vertex="1">
          <mxGeometry x="-60" y="700" width="160" height="30" as="geometry" />
        </mxCell>
        <mxCell id="rkRexL7u3ubiK1zSjF01-5" value="&lt;font style=&quot;font-size: 24px;&quot;&gt;Platform&lt;/font&gt;" style="text;strokeColor=none;align=center;fillColor=none;html=1;verticalAlign=middle;whiteSpace=wrap;rounded=0;rotation=-90;" parent="1" vertex="1">
          <mxGeometry x="-45" y="435" width="130" height="30" as="geometry" />
        </mxCell>
        <mxCell id="rkRexL7u3ubiK1zSjF01-6" value="&lt;font style=&quot;font-size: 24px;&quot;&gt;APP.&lt;/font&gt;" style="text;strokeColor=none;align=center;fillColor=none;html=1;verticalAlign=middle;whiteSpace=wrap;rounded=0;rotation=-90;" parent="1" vertex="1">
          <mxGeometry x="-60" y="190" width="160" height="30" as="geometry" />
        </mxCell>
        <mxCell id="2yIdOF0hmLs-8Ow3VVvw-43" style="edgeStyle=orthogonalEdgeStyle;rounded=0;orthogonalLoop=1;jettySize=auto;html=1;strokeWidth=3;" parent="1" source="dV2BF6gwbEOyX98F7W6L-9" target="iU7ZojFt_CZGEspTZ9bw-47" edge="1">
          <mxGeometry relative="1" as="geometry" />
        </mxCell>
        <mxCell id="dV2BF6gwbEOyX98F7W6L-9" value="&lt;span style=&quot;font-size: 13px;&quot;&gt;SENSORS&lt;br style=&quot;font-size: 13px;&quot;&gt;&lt;/span&gt;" style="aspect=fixed;perimeter=ellipsePerimeter;html=1;align=center;shadow=0;dashed=0;fontColor=#4277BB;labelBackgroundColor=#ffffff;fontSize=13;spacingTop=3;image;image=img/lib/ibm/users/sensor.svg;" parent="1" vertex="1">
          <mxGeometry x="65" y="620" width="32" height="31.2" as="geometry" />
        </mxCell>
        <mxCell id="iU7ZojFt_CZGEspTZ9bw-1" value="&lt;font style=&quot;font-size: 12px;&quot;&gt;fixed function&lt;br&gt;&lt;/font&gt;" style="text;strokeColor=none;align=center;fillColor=none;html=1;verticalAlign=middle;whiteSpace=wrap;rounded=0;" parent="1" vertex="1">
          <mxGeometry x="40" y="90" width="80" height="30" as="geometry" />
        </mxCell>
        <mxCell id="iU7ZojFt_CZGEspTZ9bw-2" value="programmable devices" style="text;strokeColor=none;align=center;fillColor=none;html=1;verticalAlign=middle;whiteSpace=wrap;rounded=0;" parent="1" vertex="1">
          <mxGeometry x="191" y="90" width="140" height="30" as="geometry" />
        </mxCell>
        <mxCell id="iU7ZojFt_CZGEspTZ9bw-3" value="edge servers &amp;amp; gateways" style="text;strokeColor=none;align=center;fillColor=none;html=1;verticalAlign=middle;whiteSpace=wrap;rounded=0;" parent="1" vertex="1">
          <mxGeometry x="540" y="90" width="150" height="30" as="geometry" />
        </mxCell>
        <mxCell id="iU7ZojFt_CZGEspTZ9bw-38" value="&lt;div style=&quot;font-size: 13px;&quot;&gt;&lt;font style=&quot;font-size: 13px;&quot;&gt;CONNECTIVITY&lt;/font&gt;&lt;br style=&quot;font-size: 13px;&quot;&gt;&lt;/div&gt;" style="aspect=fixed;perimeter=ellipsePerimeter;html=1;align=center;shadow=0;dashed=0;image;image=img/lib/ibm/infrastructure/transformation_connectivity.svg;strokeColor=#FF0000;fillColor=#FFFF66;gradientColor=none;fontColor=#4277BB;labelBackgroundColor=#ffffff;spacingTop=3;fontSize=13;" parent="1" vertex="1">
          <mxGeometry x="480" y="760" width="32" height="32" as="geometry" />
        </mxCell>
        <mxCell id="iU7ZojFt_CZGEspTZ9bw-39" value="&lt;font style=&quot;font-size: 13px;&quot;&gt;STORAGE&lt;/font&gt;" style="aspect=fixed;perimeter=ellipsePerimeter;html=1;align=center;shadow=0;dashed=0;fontColor=#4277BB;labelBackgroundColor=#ffffff;fontSize=13;spacingTop=3;image;image=img/lib/ibm/data/data_services.svg;" parent="1" vertex="1">
          <mxGeometry x="563" y="760.39" width="32" height="31.22" as="geometry" />
        </mxCell>
        <mxCell id="2yIdOF0hmLs-8Ow3VVvw-44" style="edgeStyle=orthogonalEdgeStyle;rounded=0;orthogonalLoop=1;jettySize=auto;html=1;strokeWidth=3;" parent="1" source="iU7ZojFt_CZGEspTZ9bw-47" edge="1">
          <mxGeometry relative="1" as="geometry">
            <mxPoint x="540" y="590" as="targetPoint" />
          </mxGeometry>
        </mxCell>
        <mxCell id="2yIdOF0hmLs-8Ow3VVvw-45" style="edgeStyle=orthogonalEdgeStyle;rounded=0;orthogonalLoop=1;jettySize=auto;html=1;entryX=0.5;entryY=1;entryDx=0;entryDy=0;strokeWidth=3;" parent="1" source="iU7ZojFt_CZGEspTZ9bw-47" target="2yIdOF0hmLs-8Ow3VVvw-18" edge="1">
          <mxGeometry relative="1" as="geometry" />
        </mxCell>
        <mxCell id="2yIdOF0hmLs-8Ow3VVvw-46" style="edgeStyle=orthogonalEdgeStyle;rounded=0;orthogonalLoop=1;jettySize=auto;html=1;strokeWidth=3;" parent="1" source="iU7ZojFt_CZGEspTZ9bw-47" target="2yIdOF0hmLs-8Ow3VVvw-32" edge="1">
          <mxGeometry relative="1" as="geometry" />
        </mxCell>
        <mxCell id="iU7ZojFt_CZGEspTZ9bw-47" value="&lt;font color=&quot;#4277bb&quot; style=&quot;font-size: 13px;&quot;&gt;IOT ROUTER&lt;/font&gt;" style="outlineConnect=0;dashed=0;verticalLabelPosition=bottom;verticalAlign=top;align=center;html=1;shape=mxgraph.aws3.router;fillColor=#F58534;gradientColor=none;fontSize=13;" parent="1" vertex="1">
          <mxGeometry x="65" y="710" width="32" height="32" as="geometry" />
        </mxCell>
        <mxCell id="2yIdOF0hmLs-8Ow3VVvw-8" value="&lt;font style=&quot;font-size: 9px;&quot;&gt;COLLECT&lt;br&gt;CLEANSE&lt;br&gt;ORGANIZE&lt;br&gt;ANALYZE&lt;br&gt;STORE&lt;br&gt;(RE)TRAIN&lt;/font&gt;" style="ellipse;shape=cloud;whiteSpace=wrap;html=1;" parent="1" vertex="1">
          <mxGeometry x="650" y="130" width="120" height="180" as="geometry" />
        </mxCell>
        <mxCell id="2yIdOF0hmLs-8Ow3VVvw-10" value="" style="group" parent="1" vertex="1" connectable="0">
          <mxGeometry x="1030" y="90" width="170" height="665" as="geometry" />
        </mxCell>
        <mxCell id="iU7ZojFt_CZGEspTZ9bw-41" value="regional cloud services" style="text;strokeColor=none;align=center;fillColor=none;html=1;verticalAlign=middle;whiteSpace=wrap;rounded=0;" parent="2yIdOF0hmLs-8Ow3VVvw-10" vertex="1">
          <mxGeometry width="170" height="30" as="geometry" />
        </mxCell>
        <mxCell id="iU7ZojFt_CZGEspTZ9bw-42" value="&lt;font style=&quot;font-size: 9px;&quot;&gt;COLLECT&lt;br&gt;CLEANSE&lt;br&gt;ORGANIZE&lt;br&gt;ANALYZE&lt;br&gt;STORE&lt;br&gt;(RE)TRAIN&lt;/font&gt;" style="ellipse;shape=cloud;whiteSpace=wrap;html=1;" parent="2yIdOF0hmLs-8Ow3VVvw-10" vertex="1">
          <mxGeometry x="25" y="28" width="120" height="180" as="geometry" />
        </mxCell>
        <mxCell id="iU7ZojFt_CZGEspTZ9bw-44" value="&lt;font style=&quot;font-size: 9px;&quot;&gt;PLATFORM&lt;br&gt;AS A&lt;br&gt;SERVICE&lt;/font&gt;" style="ellipse;shape=cloud;whiteSpace=wrap;html=1;" parent="2yIdOF0hmLs-8Ow3VVvw-10" vertex="1">
          <mxGeometry x="25" y="310" width="120" height="80" as="geometry" />
        </mxCell>
        <mxCell id="iU7ZojFt_CZGEspTZ9bw-46" value="&lt;font style=&quot;font-size: 9px;&quot;&gt;INFRA.&lt;br&gt;AS A&lt;br&gt;SERVICE&lt;/font&gt;" style="ellipse;shape=cloud;whiteSpace=wrap;html=1;" parent="2yIdOF0hmLs-8Ow3VVvw-10" vertex="1">
          <mxGeometry x="25" y="654" width="120" height="80" as="geometry" />
        </mxCell>
        <mxCell id="2yIdOF0hmLs-8Ow3VVvw-16" value="" style="group" parent="1" vertex="1" connectable="0">
          <mxGeometry x="160" y="130" width="200" height="560" as="geometry" />
        </mxCell>
        <mxCell id="2yIdOF0hmLs-8Ow3VVvw-14" value="" style="rounded=1;whiteSpace=wrap;html=1;fillColor=#e1d5e7;strokeColor=#9673a6;" parent="2yIdOF0hmLs-8Ow3VVvw-16" vertex="1">
          <mxGeometry width="200" height="560" as="geometry" />
        </mxCell>
        <mxCell id="dV2BF6gwbEOyX98F7W6L-6" value="&lt;font style=&quot;font-size: 13px;&quot;&gt;CAMERAS&lt;/font&gt;" style="points=[];aspect=fixed;html=1;align=center;shadow=0;dashed=0;image;image=img/lib/allied_telesis/security/Surveillance_Camera_Ceiling.svg;fontColor=#4277BB;fontSize=13;" parent="2yIdOF0hmLs-8Ow3VVvw-16" vertex="1">
          <mxGeometry x="137.57999999999998" y="491.145" width="30" height="30.45" as="geometry" />
        </mxCell>
        <mxCell id="anpZV6EC-k3CciJtOTf7-1" value="&lt;span style=&quot;font-size: 13px;&quot;&gt;MOBILE DVCS.&lt;/span&gt;" style="points=[];aspect=fixed;html=1;align=center;shadow=0;dashed=0;image;image=img/lib/allied_telesis/computer_and_terminals/Tablet.svg;fontColor=#4277BB;fontSize=13;" parent="2yIdOF0hmLs-8Ow3VVvw-16" vertex="1">
          <mxGeometry x="51.91999999999996" y="489.6" width="13.16" height="32" as="geometry" />
        </mxCell>
        <mxCell id="iU7ZojFt_CZGEspTZ9bw-4" value="&lt;font style=&quot;font-size: 13px;&quot;&gt;DEDICATED&lt;br style=&quot;font-size: 13px;&quot;&gt;EDGE SVCS.&lt;/font&gt;" style="aspect=fixed;perimeter=ellipsePerimeter;html=1;align=center;shadow=0;dashed=0;fontColor=#4277BB;labelBackgroundColor=#ffffff;fontSize=13;spacingTop=3;image;image=img/lib/ibm/applications/enterprise_applications.svg;" parent="2yIdOF0hmLs-8Ow3VVvw-16" vertex="1">
          <mxGeometry x="46.579999999999984" y="20.00000000000003" width="30" height="32" as="geometry" />
        </mxCell>
        <mxCell id="iU7ZojFt_CZGEspTZ9bw-5" value="&lt;font style=&quot;font-size: 13px;&quot;&gt;DEDICATED&lt;br style=&quot;border-color: var(--border-color); font-size: 13px;&quot;&gt;INFERENCING&lt;/font&gt;" style="aspect=fixed;perimeter=ellipsePerimeter;html=1;align=center;shadow=0;dashed=0;fontColor=#4277BB;labelBackgroundColor=#ffffff;fontSize=13;spacingTop=3;image;image=img/lib/ibm/miscellaneous/cognitive_services.svg;" parent="2yIdOF0hmLs-8Ow3VVvw-16" vertex="1">
          <mxGeometry x="43.49999999999997" y="109" width="30" height="32" as="geometry" />
        </mxCell>
        <mxCell id="iU7ZojFt_CZGEspTZ9bw-7" value="&lt;font style=&quot;font-size: 13px;&quot;&gt;DEDICATED&lt;br style=&quot;font-size: 13px;&quot;&gt;ANALYTICS&lt;/font&gt;" style="aspect=fixed;perimeter=ellipsePerimeter;html=1;align=center;shadow=0;dashed=0;fontColor=#4277BB;labelBackgroundColor=#ffffff;fontSize=13;spacingTop=3;image;image=img/lib/ibm/analytics/analytics.svg;" parent="2yIdOF0hmLs-8Ow3VVvw-16" vertex="1">
          <mxGeometry x="134.5" y="109" width="30" height="32" as="geometry" />
        </mxCell>
        <mxCell id="iU7ZojFt_CZGEspTZ9bw-8" value="&lt;font style=&quot;font-size: 13px;&quot;&gt;DEDICATED&lt;br style=&quot;border-color: var(--border-color); font-size: 13px;&quot;&gt;EDGE DATA&lt;/font&gt;" style="aspect=fixed;perimeter=ellipsePerimeter;html=1;align=center;shadow=0;dashed=0;fontColor=#4277BB;labelBackgroundColor=#ffffff;fontSize=13;spacingTop=3;image;image=img/lib/ibm/data/data_services.svg;" parent="2yIdOF0hmLs-8Ow3VVvw-16" vertex="1">
          <mxGeometry x="137.57999999999998" y="20.390000000000043" width="30" height="31.22" as="geometry" />
        </mxCell>
        <mxCell id="iU7ZojFt_CZGEspTZ9bw-24" value="&lt;font style=&quot;font-size: 13px;&quot;&gt;CONTAINER&lt;br style=&quot;font-size: 13px;&quot;&gt;ENGINE&lt;br style=&quot;font-size: 13px;&quot;&gt;&lt;/font&gt;" style="aspect=fixed;perimeter=ellipsePerimeter;html=1;align=center;shadow=0;dashed=0;fontColor=#4277BB;labelBackgroundColor=#ffffff;fontSize=13;spacingTop=3;image;image=img/lib/ibm/miscellaneous/ibm_containers.svg;" parent="2yIdOF0hmLs-8Ow3VVvw-16" vertex="1">
          <mxGeometry x="43.49999999999997" y="378.6" width="30" height="32" as="geometry" />
        </mxCell>
        <mxCell id="iU7ZojFt_CZGEspTZ9bw-37" value="&lt;font style=&quot;font-size: 13px;&quot;&gt;&lt;font color=&quot;#4277bb&quot; style=&quot;font-size: 13px;&quot;&gt;DEVICE MGMT&lt;br style=&quot;font-size: 13px;&quot;&gt;AGENT&lt;/font&gt;&lt;br style=&quot;font-size: 13px;&quot;&gt;&lt;/font&gt;" style="image;aspect=fixed;html=1;points=[];align=center;fontSize=13;image=img/lib/azure2/iot/IoT_Hub.svg;" parent="2yIdOF0hmLs-8Ow3VVvw-16" vertex="1">
          <mxGeometry x="43.49999999999997" y="210" width="30" height="32" as="geometry" />
        </mxCell>
        <mxCell id="2yIdOF0hmLs-8Ow3VVvw-5" value="&lt;font style=&quot;font-size: 13px;&quot;&gt;APP MGMT&lt;br style=&quot;font-size: 13px;&quot;&gt;AGENT&lt;/font&gt;" style="aspect=fixed;perimeter=ellipsePerimeter;html=1;align=center;shadow=0;dashed=0;fontColor=#4277BB;labelBackgroundColor=#ffffff;fontSize=13;spacingTop=3;image;image=img/lib/ibm/management/it_service_management.svg;glass=1;strokeColor=#4277BB;strokeWidth=2;fillColor=#4277BB;" parent="2yIdOF0hmLs-8Ow3VVvw-16" vertex="1">
          <mxGeometry x="134.5" y="210" width="30" height="32" as="geometry" />
        </mxCell>
        <mxCell id="2yIdOF0hmLs-8Ow3VVvw-29" value="&lt;font style=&quot;font-size: 13px;&quot;&gt;CONTAINER&lt;br style=&quot;font-size: 13px;&quot;&gt;REPO / CACHE&lt;/font&gt;" style="aspect=fixed;perimeter=ellipsePerimeter;html=1;align=center;shadow=0;dashed=0;fontColor=#4277BB;labelBackgroundColor=#ffffff;fontSize=13;spacingTop=3;image;image=img/lib/ibm/data/device_registry.svg;glass=1;strokeColor=#5192E6;strokeWidth=2;fillColor=#A78F2D;" parent="2yIdOF0hmLs-8Ow3VVvw-16" vertex="1">
          <mxGeometry x="34.579999999999984" y="300" width="32" height="32" as="geometry" />
        </mxCell>
        <mxCell id="2yIdOF0hmLs-8Ow3VVvw-30" value="&lt;font style=&quot;font-size: 13px;&quot;&gt;MODEL&lt;br style=&quot;font-size: 13px;&quot;&gt;REPO / CACHE&lt;/font&gt;" style="aspect=fixed;perimeter=ellipsePerimeter;html=1;align=center;shadow=0;dashed=0;fontColor=#4277BB;labelBackgroundColor=#ffffff;fontSize=13;spacingTop=3;image;image=img/lib/ibm/data/file_repository.svg;glass=1;strokeColor=#5192E6;strokeWidth=2;fillColor=#A78F2D;" parent="2yIdOF0hmLs-8Ow3VVvw-16" vertex="1">
          <mxGeometry x="135.57999999999998" y="300" width="32" height="32" as="geometry" />
        </mxCell>
        <mxCell id="-uQc_6Dr44pMwYAo7-qi-1" value="1" style="ellipse;whiteSpace=wrap;html=1;aspect=fixed;fillColor=#dae8fc;strokeColor=#6c8ebf;" parent="2yIdOF0hmLs-8Ow3VVvw-16" vertex="1">
          <mxGeometry x="21.579999999999984" y="200" width="20" height="20" as="geometry" />
        </mxCell>
        <mxCell id="-uQc_6Dr44pMwYAo7-qi-2" value="1" style="ellipse;whiteSpace=wrap;html=1;aspect=fixed;fillColor=#fff2cc;strokeColor=#d6b656;" parent="2yIdOF0hmLs-8Ow3VVvw-16" vertex="1">
          <mxGeometry x="115.57999999999998" y="200" width="20" height="20" as="geometry" />
        </mxCell>
        <mxCell id="-uQc_6Dr44pMwYAo7-qi-3" value="1" style="ellipse;whiteSpace=wrap;html=1;aspect=fixed;fillColor=#d5e8d4;strokeColor=#82b366;" parent="2yIdOF0hmLs-8Ow3VVvw-16" vertex="1">
          <mxGeometry x="117.57999999999998" y="10" width="20" height="20" as="geometry" />
        </mxCell>
        <mxCell id="iU7ZojFt_CZGEspTZ9bw-45" value="&lt;font style=&quot;font-size: 9px;&quot;&gt;INFRA.&lt;br&gt;AS A&lt;br&gt;SERVICE&lt;/font&gt;" style="ellipse;shape=cloud;whiteSpace=wrap;html=1;" parent="1" vertex="1">
          <mxGeometry x="1429" y="740" width="120" height="80" as="geometry" />
        </mxCell>
        <mxCell id="2yIdOF0hmLs-8Ow3VVvw-47" value="1" style="ellipse;whiteSpace=wrap;html=1;aspect=fixed;" parent="1" vertex="1">
          <mxGeometry x="510" y="610" width="20" height="20" as="geometry" />
        </mxCell>
        <mxCell id="2yIdOF0hmLs-8Ow3VVvw-49" value="3" style="ellipse;whiteSpace=wrap;html=1;aspect=fixed;" parent="1" vertex="1">
          <mxGeometry x="1290" y="610" width="20" height="20" as="geometry" />
        </mxCell>
        <mxCell id="2yIdOF0hmLs-8Ow3VVvw-19" value="&lt;font style=&quot;font-size: 13px;&quot;&gt;SHARED&lt;br style=&quot;font-size: 13px;&quot;&gt;EDGE SVCS.&lt;/font&gt;" style="aspect=fixed;perimeter=ellipsePerimeter;html=1;align=center;shadow=0;dashed=0;fontColor=#4277BB;labelBackgroundColor=#ffffff;fontSize=13;spacingTop=3;image;image=img/lib/ibm/applications/enterprise_applications.svg;" parent="1" vertex="1">
          <mxGeometry x="857" y="146.00000000000003" width="32" height="32" as="geometry" />
        </mxCell>
        <mxCell id="2yIdOF0hmLs-8Ow3VVvw-20" value="&lt;font style=&quot;font-size: 13px;&quot;&gt;SHARED&lt;br style=&quot;font-size: 13px;&quot;&gt;INFERENCING&lt;/font&gt;" style="aspect=fixed;perimeter=ellipsePerimeter;html=1;align=center;shadow=0;dashed=0;fontColor=#4277BB;labelBackgroundColor=#ffffff;fontSize=13;spacingTop=3;image;image=img/lib/ibm/miscellaneous/cognitive_services.svg;" parent="1" vertex="1">
          <mxGeometry x="857" y="239" width="32" height="32" as="geometry" />
        </mxCell>
        <mxCell id="2yIdOF0hmLs-8Ow3VVvw-21" value="&lt;font style=&quot;font-size: 13px;&quot;&gt;SHARED&lt;br style=&quot;font-size: 13px;&quot;&gt;ANALYTICS&lt;/font&gt;" style="aspect=fixed;perimeter=ellipsePerimeter;html=1;align=center;shadow=0;dashed=0;fontColor=#4277BB;labelBackgroundColor=#ffffff;fontSize=13;spacingTop=3;image;image=img/lib/ibm/analytics/analytics.svg;" parent="1" vertex="1">
          <mxGeometry x="952" y="239" width="32" height="32" as="geometry" />
        </mxCell>
        <mxCell id="2yIdOF0hmLs-8Ow3VVvw-22" value="&lt;font style=&quot;font-size: 13px;&quot;&gt;AGGREGATED&lt;br style=&quot;font-size: 13px;&quot;&gt;EDGE DATA&lt;/font&gt;" style="aspect=fixed;perimeter=ellipsePerimeter;html=1;align=center;shadow=0;dashed=0;fontColor=#4277BB;labelBackgroundColor=#ffffff;fontSize=13;spacingTop=3;image;image=img/lib/ibm/data/data_services.svg;" parent="1" vertex="1">
          <mxGeometry x="952" y="146.39000000000004" width="32" height="31.22" as="geometry" />
        </mxCell>
        <mxCell id="2yIdOF0hmLs-8Ow3VVvw-24" value="&lt;font style=&quot;font-size: 13px;&quot;&gt;CONTAINER&lt;br style=&quot;font-size: 13px;&quot;&gt;CLUSTER&lt;br style=&quot;font-size: 13px;&quot;&gt;&lt;/font&gt;" style="aspect=fixed;perimeter=ellipsePerimeter;html=1;align=center;shadow=0;dashed=0;fontColor=#4277BB;labelBackgroundColor=#ffffff;fontSize=13;spacingTop=3;image;image=img/lib/ibm/management/management.svg;glass=1;strokeColor=#4277BB;strokeWidth=2;fillColor=#4277BB;" parent="1" vertex="1">
          <mxGeometry x="952" y="508.6" width="32" height="32.8" as="geometry" />
        </mxCell>
        <mxCell id="2yIdOF0hmLs-8Ow3VVvw-25" value="&lt;font style=&quot;font-size: 13px;&quot;&gt;&lt;font color=&quot;#4277bb&quot; style=&quot;font-size: 13px;&quot;&gt;DEVICE&lt;br style=&quot;font-size: 13px;&quot;&gt;MGMT,&lt;/font&gt;&lt;br style=&quot;font-size: 13px;&quot;&gt;&lt;/font&gt;" style="image;aspect=fixed;html=1;points=[];align=center;fontSize=13;image=img/lib/azure2/iot/IoT_Hub.svg;" parent="1" vertex="1">
          <mxGeometry x="857" y="340" width="32" height="32" as="geometry" />
        </mxCell>
        <mxCell id="2yIdOF0hmLs-8Ow3VVvw-26" value="&lt;font style=&quot;font-size: 13px;&quot;&gt;APP.&lt;br style=&quot;font-size: 13px;&quot;&gt;MGMT,&lt;/font&gt;" style="aspect=fixed;perimeter=ellipsePerimeter;html=1;align=center;shadow=0;dashed=0;fontColor=#4277BB;labelBackgroundColor=#ffffff;fontSize=13;spacingTop=3;image;image=img/lib/ibm/management/it_service_management.svg;glass=1;strokeColor=#4277BB;strokeWidth=2;fillColor=#4277BB;" parent="1" vertex="1">
          <mxGeometry x="952" y="340" width="32" height="32" as="geometry" />
        </mxCell>
        <mxCell id="2yIdOF0hmLs-8Ow3VVvw-27" value="&lt;font style=&quot;font-size: 13px;&quot;&gt;CONTAINER&lt;br style=&quot;font-size: 13px;&quot;&gt;REPOSITORY&lt;/font&gt;" style="aspect=fixed;perimeter=ellipsePerimeter;html=1;align=center;shadow=0;dashed=0;fontColor=#4277BB;labelBackgroundColor=#ffffff;fontSize=13;spacingTop=3;image;image=img/lib/ibm/data/device_registry.svg;glass=1;strokeColor=#5192E6;strokeWidth=2;fillColor=#A78F2D;" parent="1" vertex="1">
          <mxGeometry x="857" y="431" width="32" height="32" as="geometry" />
        </mxCell>
        <mxCell id="2yIdOF0hmLs-8Ow3VVvw-28" value="&lt;font style=&quot;font-size: 13px;&quot;&gt;MODEL&lt;br style=&quot;font-size: 13px;&quot;&gt;REPOSITORY&lt;/font&gt;" style="aspect=fixed;perimeter=ellipsePerimeter;html=1;align=center;shadow=0;dashed=0;fontColor=#4277BB;labelBackgroundColor=#ffffff;fontSize=13;spacingTop=3;image;image=img/lib/ibm/data/file_repository.svg;glass=1;strokeColor=#5192E6;strokeWidth=2;fillColor=#A78F2D;" parent="1" vertex="1">
          <mxGeometry x="952" y="431" width="32" height="32" as="geometry" />
        </mxCell>
        <mxCell id="2yIdOF0hmLs-8Ow3VVvw-13" value="" style="rounded=1;whiteSpace=wrap;html=1;fillColor=#e1d5e7;strokeColor=#9673a6;" parent="1" vertex="1">
          <mxGeometry x="437" y="130" width="200" height="460" as="geometry" />
        </mxCell>
        <mxCell id="iU7ZojFt_CZGEspTZ9bw-17" value="&lt;font style=&quot;font-size: 13px;&quot;&gt;SHARED&lt;br style=&quot;font-size: 13px;&quot;&gt;EDGE SVCS.&lt;/font&gt;" style="aspect=fixed;perimeter=ellipsePerimeter;html=1;align=center;shadow=0;dashed=0;fontColor=#4277BB;labelBackgroundColor=#ffffff;fontSize=13;spacingTop=3;image;image=img/lib/ibm/applications/enterprise_applications.svg;" parent="1" vertex="1">
          <mxGeometry x="474" y="146.00000000000003" width="32" height="32" as="geometry" />
        </mxCell>
        <mxCell id="iU7ZojFt_CZGEspTZ9bw-18" value="&lt;font style=&quot;font-size: 13px;&quot;&gt;SHARED&lt;br style=&quot;font-size: 13px;&quot;&gt;INFERENCING&lt;/font&gt;" style="aspect=fixed;perimeter=ellipsePerimeter;html=1;align=center;shadow=0;dashed=0;fontColor=#4277BB;labelBackgroundColor=#ffffff;fontSize=13;spacingTop=3;image;image=img/lib/ibm/miscellaneous/cognitive_services.svg;" parent="1" vertex="1">
          <mxGeometry x="474" y="239" width="32" height="32" as="geometry" />
        </mxCell>
        <mxCell id="iU7ZojFt_CZGEspTZ9bw-19" value="&lt;font style=&quot;font-size: 13px;&quot;&gt;SHARED&lt;br style=&quot;font-size: 13px;&quot;&gt;ANALYTICS&lt;/font&gt;" style="aspect=fixed;perimeter=ellipsePerimeter;html=1;align=center;shadow=0;dashed=0;fontColor=#4277BB;labelBackgroundColor=#ffffff;fontSize=13;spacingTop=3;image;image=img/lib/ibm/analytics/analytics.svg;" parent="1" vertex="1">
          <mxGeometry x="568" y="239" width="32" height="32" as="geometry" />
        </mxCell>
        <mxCell id="iU7ZojFt_CZGEspTZ9bw-20" value="&lt;font style=&quot;font-size: 13px;&quot;&gt;AGGREGATED&lt;br style=&quot;font-size: 13px;&quot;&gt;EDGE DATA&lt;/font&gt;" style="aspect=fixed;perimeter=ellipsePerimeter;html=1;align=center;shadow=0;dashed=0;fontColor=#4277BB;labelBackgroundColor=#ffffff;fontSize=13;spacingTop=3;image;image=img/lib/ibm/data/data_services.svg;" parent="1" vertex="1">
          <mxGeometry x="568" y="146.39000000000004" width="32" height="31.22" as="geometry" />
        </mxCell>
        <mxCell id="iU7ZojFt_CZGEspTZ9bw-21" value="&lt;font style=&quot;font-size: 13px;&quot;&gt;CONTAINER&lt;br style=&quot;font-size: 13px;&quot;&gt;ENGINE&lt;br style=&quot;font-size: 13px;&quot;&gt;&lt;/font&gt;" style="aspect=fixed;perimeter=ellipsePerimeter;html=1;align=center;shadow=0;dashed=0;fontColor=#4277BB;labelBackgroundColor=#ffffff;fontSize=13;spacingTop=3;image;image=img/lib/ibm/miscellaneous/ibm_containers.svg;" parent="1" vertex="1">
          <mxGeometry x="474" y="509" width="32" height="32" as="geometry" />
        </mxCell>
        <mxCell id="iU7ZojFt_CZGEspTZ9bw-22" value="&lt;font style=&quot;font-size: 13px;&quot;&gt;CONTAINER&lt;br style=&quot;font-size: 13px;&quot;&gt;CLUSTER&lt;br style=&quot;font-size: 13px;&quot;&gt;&lt;/font&gt;" style="aspect=fixed;perimeter=ellipsePerimeter;html=1;align=center;shadow=0;dashed=0;fontColor=#4277BB;labelBackgroundColor=#ffffff;fontSize=13;spacingTop=3;image;image=img/lib/ibm/management/management.svg;glass=1;strokeColor=#4277BB;strokeWidth=2;fillColor=#4277BB;" parent="1" vertex="1">
          <mxGeometry x="568" y="508.6" width="32" height="32.8" as="geometry" />
        </mxCell>
        <mxCell id="iU7ZojFt_CZGEspTZ9bw-30" value="&lt;font style=&quot;font-size: 13px;&quot;&gt;&lt;font color=&quot;#4277bb&quot; style=&quot;font-size: 13px;&quot;&gt;DEVICE&lt;br style=&quot;font-size: 13px;&quot;&gt;MGMT,&lt;/font&gt;&lt;br style=&quot;font-size: 13px;&quot;&gt;&lt;/font&gt;" style="image;aspect=fixed;html=1;points=[];align=center;fontSize=13;image=img/lib/azure2/iot/IoT_Hub.svg;" parent="1" vertex="1">
          <mxGeometry x="474" y="340" width="32" height="32" as="geometry" />
        </mxCell>
        <mxCell id="iU7ZojFt_CZGEspTZ9bw-33" value="&lt;font style=&quot;font-size: 13px;&quot;&gt;APP.&lt;br style=&quot;font-size: 13px;&quot;&gt;MGMT,&lt;/font&gt;" style="aspect=fixed;perimeter=ellipsePerimeter;html=1;align=center;shadow=0;dashed=0;fontColor=#4277BB;labelBackgroundColor=#ffffff;fontSize=13;spacingTop=3;image;image=img/lib/ibm/management/it_service_management.svg;glass=1;strokeColor=#4277BB;strokeWidth=2;fillColor=#4277BB;" parent="1" vertex="1">
          <mxGeometry x="568" y="340" width="32" height="32" as="geometry" />
        </mxCell>
        <mxCell id="2yIdOF0hmLs-8Ow3VVvw-6" value="&lt;font style=&quot;font-size: 13px;&quot;&gt;CONTAINER&lt;br style=&quot;font-size: 13px;&quot;&gt;REPOSITORY&lt;/font&gt;" style="aspect=fixed;perimeter=ellipsePerimeter;html=1;align=center;shadow=0;dashed=0;fontColor=#4277BB;labelBackgroundColor=#ffffff;fontSize=13;spacingTop=3;image;image=img/lib/ibm/data/device_registry.svg;glass=1;strokeColor=#5192E6;strokeWidth=2;fillColor=#A78F2D;" parent="1" vertex="1">
          <mxGeometry x="474" y="431" width="32" height="32" as="geometry" />
        </mxCell>
        <mxCell id="2yIdOF0hmLs-8Ow3VVvw-7" value="&lt;font style=&quot;font-size: 13px;&quot;&gt;MODEL&lt;br style=&quot;font-size: 13px;&quot;&gt;REPOSITORY&lt;/font&gt;" style="aspect=fixed;perimeter=ellipsePerimeter;html=1;align=center;shadow=0;dashed=0;fontColor=#4277BB;labelBackgroundColor=#ffffff;fontSize=13;spacingTop=3;image;image=img/lib/ibm/data/file_repository.svg;glass=1;strokeColor=#5192E6;strokeWidth=2;fillColor=#A78F2D;" parent="1" vertex="1">
          <mxGeometry x="568" y="431" width="32" height="32" as="geometry" />
        </mxCell>
        <mxCell id="2yIdOF0hmLs-8Ow3VVvw-51" value="1" style="ellipse;whiteSpace=wrap;html=1;aspect=fixed;fillColor=#dae8fc;strokeColor=#6c8ebf;" parent="1" vertex="1">
          <mxGeometry x="454" y="330" width="20" height="20" as="geometry" />
        </mxCell>
        <mxCell id="2yIdOF0hmLs-8Ow3VVvw-52" value="3" style="ellipse;whiteSpace=wrap;html=1;aspect=fixed;fillColor=#dae8fc;strokeColor=#6c8ebf;" parent="1" vertex="1">
          <mxGeometry x="1240" y="330" width="20" height="20" as="geometry" />
        </mxCell>
        <mxCell id="2yIdOF0hmLs-8Ow3VVvw-50" value="2" style="ellipse;whiteSpace=wrap;html=1;aspect=fixed;fillColor=#dae8fc;strokeColor=#6c8ebf;" parent="1" vertex="1">
          <mxGeometry x="835" y="330" width="20" height="20" as="geometry" />
        </mxCell>
        <mxCell id="2yIdOF0hmLs-8Ow3VVvw-53" value="1" style="ellipse;whiteSpace=wrap;html=1;aspect=fixed;fillColor=#fff2cc;strokeColor=#d6b656;" parent="1" vertex="1">
          <mxGeometry x="545" y="330" width="20" height="20" as="geometry" />
        </mxCell>
        <mxCell id="2yIdOF0hmLs-8Ow3VVvw-54" value="3" style="ellipse;whiteSpace=wrap;html=1;aspect=fixed;fillColor=#fff2cc;strokeColor=#d6b656;" parent="1" vertex="1">
          <mxGeometry x="1320" y="330" width="20" height="20" as="geometry" />
        </mxCell>
        <mxCell id="2yIdOF0hmLs-8Ow3VVvw-55" value="2" style="ellipse;whiteSpace=wrap;html=1;aspect=fixed;fillColor=#fff2cc;strokeColor=#d6b656;" parent="1" vertex="1">
          <mxGeometry x="927" y="330" width="20" height="20" as="geometry" />
        </mxCell>
        <mxCell id="2yIdOF0hmLs-8Ow3VVvw-59" value="2" style="ellipse;whiteSpace=wrap;html=1;aspect=fixed;fillColor=#d5e8d4;strokeColor=#82b366;" parent="1" vertex="1">
          <mxGeometry x="929" y="140" width="20" height="20" as="geometry" />
        </mxCell>
        <mxCell id="2yIdOF0hmLs-8Ow3VVvw-58" value="3" style="ellipse;whiteSpace=wrap;html=1;aspect=fixed;fillColor=#d5e8d4;strokeColor=#82b366;" parent="1" vertex="1">
          <mxGeometry x="1322" y="140" width="20" height="20" as="geometry" />
        </mxCell>
        <mxCell id="2yIdOF0hmLs-8Ow3VVvw-57" value="1" style="ellipse;whiteSpace=wrap;html=1;aspect=fixed;fillColor=#d5e8d4;strokeColor=#82b366;" parent="1" vertex="1">
          <mxGeometry x="547" y="140" width="20" height="20" as="geometry" />
        </mxCell>
        <mxCell id="iU7ZojFt_CZGEspTZ9bw-40" value="shared &amp;amp; multi-tenant services" style="text;strokeColor=none;align=center;fillColor=none;html=1;verticalAlign=middle;whiteSpace=wrap;rounded=0;" parent="1" vertex="1">
          <mxGeometry x="836" y="90" width="170" height="30" as="geometry" />
        </mxCell>
        <mxCell id="otucCCkhgbF7Wdb0TqmZ-11" value="&lt;div style=&quot;font-size: 13px;&quot;&gt;&lt;font style=&quot;font-size: 13px;&quot;&gt;CONNECTIVITY&lt;/font&gt;&lt;br style=&quot;font-size: 13px;&quot;&gt;&lt;/div&gt;" style="aspect=fixed;perimeter=ellipsePerimeter;html=1;align=center;shadow=0;dashed=0;image;image=img/lib/ibm/infrastructure/transformation_connectivity.svg;strokeColor=#FF0000;fillColor=#FFFF66;gradientColor=none;fontColor=#4277BB;labelBackgroundColor=#ffffff;spacingTop=3;fontSize=13;" parent="1" vertex="1">
          <mxGeometry x="855" y="760" width="32" height="32" as="geometry" />
        </mxCell>
        <mxCell id="otucCCkhgbF7Wdb0TqmZ-12" value="&lt;font style=&quot;font-size: 13px;&quot;&gt;STORAGE&lt;/font&gt;" style="aspect=fixed;perimeter=ellipsePerimeter;html=1;align=center;shadow=0;dashed=0;fontColor=#4277BB;labelBackgroundColor=#ffffff;fontSize=13;spacingTop=3;image;image=img/lib/ibm/data/data_services.svg;" parent="1" vertex="1">
          <mxGeometry x="955" y="760.39" width="32" height="31.22" as="geometry" />
        </mxCell>
        <mxCell id="2yIdOF0hmLs-8Ow3VVvw-48" value="2" style="ellipse;whiteSpace=wrap;html=1;aspect=fixed;" parent="1" vertex="1">
          <mxGeometry x="890" y="610" width="20" height="20" as="geometry" />
        </mxCell>
        <mxCell id="2yIdOF0hmLs-8Ow3VVvw-31" value="" style="group" parent="1" vertex="1" connectable="0">
          <mxGeometry x="1220" y="131" width="200" height="460" as="geometry" />
        </mxCell>
        <mxCell id="2yIdOF0hmLs-8Ow3VVvw-32" value="" style="rounded=1;whiteSpace=wrap;html=1;fillColor=#e1d5e7;strokeColor=#9673a6;" parent="2yIdOF0hmLs-8Ow3VVvw-31" vertex="1">
          <mxGeometry width="200" height="460" as="geometry" />
        </mxCell>
        <mxCell id="2yIdOF0hmLs-8Ow3VVvw-33" value="&lt;font style=&quot;font-size: 13px;&quot;&gt;SHARED&lt;br style=&quot;font-size: 13px;&quot;&gt;SVCS.&lt;/font&gt;" style="aspect=fixed;perimeter=ellipsePerimeter;html=1;align=center;shadow=0;dashed=0;fontColor=#4277BB;labelBackgroundColor=#ffffff;fontSize=13;spacingTop=3;image;image=img/lib/ibm/applications/enterprise_applications.svg;" parent="2yIdOF0hmLs-8Ow3VVvw-31" vertex="1">
          <mxGeometry x="36" y="16.00000000000003" width="32" height="32" as="geometry" />
        </mxCell>
        <mxCell id="2yIdOF0hmLs-8Ow3VVvw-34" value="&lt;font style=&quot;font-size: 13px;&quot;&gt;SHARED&lt;br style=&quot;font-size: 13px;&quot;&gt;INFERENCING&lt;/font&gt;" style="aspect=fixed;perimeter=ellipsePerimeter;html=1;align=center;shadow=0;dashed=0;fontColor=#4277BB;labelBackgroundColor=#ffffff;fontSize=13;spacingTop=3;image;image=img/lib/ibm/miscellaneous/cognitive_services.svg;" parent="2yIdOF0hmLs-8Ow3VVvw-31" vertex="1">
          <mxGeometry x="36" y="109" width="32" height="32" as="geometry" />
        </mxCell>
        <mxCell id="2yIdOF0hmLs-8Ow3VVvw-35" value="&lt;font style=&quot;font-size: 13px;&quot;&gt;SHARED&lt;br style=&quot;font-size: 13px;&quot;&gt;ANALYTICS&lt;/font&gt;" style="aspect=fixed;perimeter=ellipsePerimeter;html=1;align=center;shadow=0;dashed=0;fontColor=#4277BB;labelBackgroundColor=#ffffff;fontSize=13;spacingTop=3;image;image=img/lib/ibm/analytics/analytics.svg;" parent="2yIdOF0hmLs-8Ow3VVvw-31" vertex="1">
          <mxGeometry x="132" y="109" width="32" height="32" as="geometry" />
        </mxCell>
        <mxCell id="2yIdOF0hmLs-8Ow3VVvw-36" value="&lt;font style=&quot;font-size: 13px;&quot;&gt;AGGREGATED&lt;br style=&quot;font-size: 13px;&quot;&gt;DATA&lt;/font&gt;" style="aspect=fixed;perimeter=ellipsePerimeter;html=1;align=center;shadow=0;dashed=0;fontColor=#4277BB;labelBackgroundColor=#ffffff;fontSize=13;spacingTop=3;image;image=img/lib/ibm/data/data_services.svg;" parent="2yIdOF0hmLs-8Ow3VVvw-31" vertex="1">
          <mxGeometry x="132" y="16.390000000000043" width="32" height="31.22" as="geometry" />
        </mxCell>
        <mxCell id="2yIdOF0hmLs-8Ow3VVvw-37" value="&lt;font style=&quot;font-size: 13px;&quot;&gt;CONTAINER&lt;br style=&quot;font-size: 13px;&quot;&gt;CLUSTER&lt;br style=&quot;font-size: 13px;&quot;&gt;&lt;/font&gt;" style="aspect=fixed;perimeter=ellipsePerimeter;html=1;align=center;shadow=0;dashed=0;fontColor=#4277BB;labelBackgroundColor=#ffffff;fontSize=13;spacingTop=3;image;image=img/lib/ibm/management/management.svg;glass=1;strokeColor=#4277BB;strokeWidth=2;fillColor=#4277BB;" parent="2yIdOF0hmLs-8Ow3VVvw-31" vertex="1">
          <mxGeometry x="132" y="378.6" width="32" height="32.8" as="geometry" />
        </mxCell>
        <mxCell id="2yIdOF0hmLs-8Ow3VVvw-38" value="&lt;font style=&quot;font-size: 13px;&quot;&gt;&lt;font color=&quot;#4277bb&quot; style=&quot;font-size: 13px;&quot;&gt;DEVICE&lt;br style=&quot;font-size: 13px;&quot;&gt;MGMT,&lt;/font&gt;&lt;br style=&quot;font-size: 13px;&quot;&gt;&lt;/font&gt;" style="image;aspect=fixed;html=1;points=[];align=center;fontSize=13;image=img/lib/azure2/iot/IoT_Hub.svg;" parent="2yIdOF0hmLs-8Ow3VVvw-31" vertex="1">
          <mxGeometry x="36" y="210" width="32" height="32" as="geometry" />
        </mxCell>
        <mxCell id="2yIdOF0hmLs-8Ow3VVvw-39" value="&lt;font style=&quot;font-size: 13px;&quot;&gt;APP.&lt;br style=&quot;font-size: 13px;&quot;&gt;MGMT,&lt;/font&gt;" style="aspect=fixed;perimeter=ellipsePerimeter;html=1;align=center;shadow=0;dashed=0;fontColor=#4277BB;labelBackgroundColor=#ffffff;fontSize=13;spacingTop=3;image;image=img/lib/ibm/management/it_service_management.svg;glass=1;strokeColor=#4277BB;strokeWidth=2;fillColor=#4277BB;" parent="2yIdOF0hmLs-8Ow3VVvw-31" vertex="1">
          <mxGeometry x="132" y="210" width="32" height="32" as="geometry" />
        </mxCell>
        <mxCell id="2yIdOF0hmLs-8Ow3VVvw-40" value="&lt;font style=&quot;font-size: 13px;&quot;&gt;CONTAINER&lt;br style=&quot;font-size: 13px;&quot;&gt;REPOSITORY&lt;/font&gt;" style="aspect=fixed;perimeter=ellipsePerimeter;html=1;align=center;shadow=0;dashed=0;fontColor=#4277BB;labelBackgroundColor=#ffffff;fontSize=13;spacingTop=3;image;image=img/lib/ibm/data/device_registry.svg;glass=1;strokeColor=#5192E6;strokeWidth=2;fillColor=#A78F2D;" parent="2yIdOF0hmLs-8Ow3VVvw-31" vertex="1">
          <mxGeometry x="36" y="301" width="32" height="32" as="geometry" />
        </mxCell>
        <mxCell id="2yIdOF0hmLs-8Ow3VVvw-41" value="&lt;font style=&quot;font-size: 13px;&quot;&gt;MODEL&lt;br style=&quot;font-size: 13px;&quot;&gt;REPOSITORY&lt;/font&gt;" style="aspect=fixed;perimeter=ellipsePerimeter;html=1;align=center;shadow=0;dashed=0;fontColor=#4277BB;labelBackgroundColor=#ffffff;fontSize=13;spacingTop=3;image;image=img/lib/ibm/data/file_repository.svg;glass=1;strokeColor=#5192E6;strokeWidth=2;fillColor=#A78F2D;" parent="2yIdOF0hmLs-8Ow3VVvw-31" vertex="1">
          <mxGeometry x="132" y="301" width="32" height="32" as="geometry" />
        </mxCell>
        <mxCell id="iU7ZojFt_CZGEspTZ9bw-43" value="&lt;font style=&quot;font-size: 9px;&quot;&gt;PLATFORM&lt;br&gt;AS A&lt;br&gt;SERVICE&lt;/font&gt;" style="ellipse;shape=cloud;whiteSpace=wrap;html=1;" parent="1" vertex="1">
          <mxGeometry x="1429" y="399" width="120" height="80" as="geometry" />
        </mxCell>
        <mxCell id="2yIdOF0hmLs-8Ow3VVvw-9" value="&lt;font style=&quot;font-size: 9px;&quot;&gt;COLLECT&lt;br&gt;CLEANSE&lt;br&gt;ORGANIZE&lt;br&gt;ANALYZE&lt;br&gt;STORE&lt;br&gt;(RE)TRAIN&lt;/font&gt;" style="ellipse;shape=cloud;whiteSpace=wrap;html=1;" parent="1" vertex="1">
          <mxGeometry x="1429" y="117" width="120" height="180" as="geometry" />
        </mxCell>
      </root>
    </mxGraphModel>
  </diagram>
</mxfile>
